<svg width="89" height="89" viewBox="0 0 89 89" fill="none" xmlns="http://www.w3.org/2000/svg">
<circle cx="44.5" cy="44.5" r="44.5" fill="#00E674" fill-opacity="0.4"/>
<path d="M24.75 54L36.659 42.091C37.5377 41.2123 38.9623 41.2123 39.841 42.091L49.5 51.75M49.5 51.75L46.125 55.125M49.5 51.75L53.534 47.716C54.4127 46.8373 55.8373 46.8373 56.716 47.716L65.25 56.25M29.25 63H60.75C63.2353 63 65.25 60.9853 65.25 58.5V31.5C65.25 29.0147 63.2353 27 60.75 27H29.25C26.7647 27 24.75 29.0147 24.75 31.5V58.5C24.75 60.9853 26.7647 63 29.25 63ZM59.625 37.125C59.625 39.6103 57.6103 41.625 55.125 41.625C52.6397 41.625 50.625 39.6103 50.625 37.125C50.625 34.6397 52.6397 32.625 55.125 32.625C57.6103 32.625 59.625 34.6397 59.625 37.125Z" stroke="#0B1F22" stroke-width="3" stroke-linecap="round"/>
</svg>
