<svg width="144" height="25" viewBox="0 0 144 25" fill="none" xmlns="http://www.w3.org/2000/svg">
<path d="M124.156 24L119.42 7.87201H123.228L126.524 21.12L125.82 21.088L129.5 7.87201H133.788L137.5 21.088H136.796L140.092 7.87201H143.9L139.164 24H135.196L131.26 10.336H132.06L128.124 24H124.156Z" fill="#0B1F22"/>
<path d="M109.664 24.384C108.128 24.384 106.741 24.032 105.504 23.328C104.288 22.6026 103.328 21.6106 102.624 20.352C101.941 19.072 101.6 17.6106 101.6 15.968C101.6 14.2826 101.952 12.8106 102.656 11.552C103.36 10.272 104.32 9.27998 105.536 8.57598C106.773 7.85064 108.16 7.48798 109.696 7.48798C111.232 7.48798 112.608 7.85064 113.824 8.57598C115.061 9.27998 116.021 10.2613 116.704 11.52C117.408 12.7786 117.76 14.2506 117.76 15.936C117.76 17.6213 117.408 19.0933 116.704 20.352C116 21.6106 115.029 22.6026 113.792 23.328C112.576 24.032 111.2 24.384 109.664 24.384ZM109.664 21.088C110.432 21.088 111.125 20.896 111.744 20.512C112.384 20.128 112.896 19.552 113.28 18.784C113.664 18.016 113.856 17.0666 113.856 15.936C113.856 14.8053 113.664 13.8666 113.28 13.12C112.917 12.352 112.416 11.776 111.776 11.392C111.157 11.008 110.464 10.816 109.696 10.816C108.949 10.816 108.256 11.008 107.616 11.392C106.976 11.776 106.464 12.352 106.08 13.12C105.696 13.8666 105.504 14.8053 105.504 15.936C105.504 17.0666 105.696 18.016 106.08 18.784C106.464 19.552 106.965 20.128 107.584 20.512C108.224 20.896 108.917 21.088 109.664 21.088Z" fill="#0B1F22"/>
<path d="M83.2254 24V6.11199C83.2254 4.87466 83.4281 3.88266 83.8334 3.13599C84.2601 2.36799 84.8681 1.81332 85.6574 1.47199C86.4467 1.13066 87.3854 0.959991 88.4734 0.959991H90.3934V4.22399H89.0494C88.3454 4.22399 87.8334 4.37332 87.5134 4.67199C87.2147 4.94932 87.0654 5.43999 87.0654 6.14399V24H83.2254ZM80.9214 11.104V7.87199H90.7134V11.104H80.9214ZM94.0094 24V0.959991H97.8494V24H94.0094Z" fill="#0B1F22"/>
<path d="M75.044 24L67.908 15.168L74.308 7.87199H78.884L70.916 16.736V13.76L79.844 24H75.044ZM64.644 24V0.959991H68.484V24H64.644Z" fill="#0B1F22"/>
<path d="M51.9253 24V7.87198H55.3493L55.7013 10.88C56.0853 10.176 56.5653 9.57864 57.1413 9.08798C57.7173 8.57598 58.3893 8.18131 59.1573 7.90398C59.9466 7.62664 60.8106 7.48798 61.7493 7.48798V11.552H60.4053C59.7653 11.552 59.1573 11.6373 58.5813 11.808C58.0053 11.9573 57.504 12.2133 57.0773 12.576C56.672 12.9173 56.352 13.3973 56.1173 14.016C55.8826 14.6133 55.7653 15.3706 55.7653 16.288V24H51.9253Z" fill="#0B1F22"/>
<path d="M40.0704 24.384C38.5344 24.384 37.1477 24.032 35.9104 23.328C34.6944 22.6026 33.7343 21.6106 33.0303 20.352C32.3477 19.072 32.0063 17.6106 32.0063 15.968C32.0063 14.2826 32.3583 12.8106 33.0623 11.552C33.7663 10.272 34.7263 9.27998 35.9423 8.57598C37.1797 7.85064 38.5663 7.48798 40.1023 7.48798C41.6383 7.48798 43.0144 7.85064 44.2304 8.57598C45.4677 9.27998 46.4277 10.2613 47.1104 11.52C47.8144 12.7786 48.1664 14.2506 48.1664 15.936C48.1664 17.6213 47.8144 19.0933 47.1104 20.352C46.4064 21.6106 45.4357 22.6026 44.1983 23.328C42.9823 24.032 41.6064 24.384 40.0704 24.384ZM40.0704 21.088C40.8384 21.088 41.5317 20.896 42.1503 20.512C42.7903 20.128 43.3023 19.552 43.6863 18.784C44.0703 18.016 44.2624 17.0666 44.2624 15.936C44.2624 14.8053 44.0703 13.8666 43.6863 13.12C43.3237 12.352 42.8224 11.776 42.1824 11.392C41.5637 11.008 40.8703 10.816 40.1023 10.816C39.3557 10.816 38.6624 11.008 38.0224 11.392C37.3824 11.776 36.8704 12.352 36.4864 13.12C36.1024 13.8666 35.9104 14.8053 35.9104 15.936C35.9104 17.0666 36.1024 18.016 36.4864 18.784C36.8704 19.552 37.3717 20.128 37.9903 20.512C38.6303 20.896 39.3237 21.088 40.0704 21.088Z" fill="#0B1F22"/>
<path d="M6.78403 24L0.832031 1.59998H4.92803L9.12003 19.616L13.984 1.59998H18.24L22.944 19.648L27.168 1.59998H31.296L25.184 24H20.64L16.032 7.03998L11.296 24H6.78403Z" fill="#0B1F22"/>
</svg>
